<svg xmlns="http://www.w3.org/2000/svg" viewBox="0 0 500 500"><g id="freepik--Blackboard--inject-4"><path d="M169,410.25h5.42V263.93h6.83V410.25h5.42a1.52,1.52,0,0,1,1.52,1.52v2.16H167.48v-2.16A1.52,1.52,0,0,1,169,410.25Z" style="fill:#263238"></path><path d="M297.08,410.25h5.42V263.93h6.83V410.25h5.42a1.52,1.52,0,0,1,1.52,1.52v2.16H295.56v-2.16A1.52,1.52,0,0,1,297.08,410.25Z" style="fill:#263238"></path><g style="opacity:0.5"><path d="M169,410.25h5.42V263.93h6.83V410.25h5.42a1.52,1.52,0,0,1,1.52,1.52v2.16H167.48v-2.16A1.52,1.52,0,0,1,169,410.25Z" style="fill:#fff"></path><path d="M297.08,410.25h5.42V263.93h6.83V410.25h5.42a1.52,1.52,0,0,1,1.52,1.52v2.16H295.56v-2.16A1.52,1.52,0,0,1,297.08,410.25Z" style="fill:#fff"></path></g><rect x="145.1" y="130.6" width="193.55" height="142.74" transform="translate(483.75 403.95) rotate(180)" style="fill:#263238"></rect><rect x="145.1" y="130.6" width="193.55" height="142.74" transform="translate(483.75 403.95) rotate(180)" style="fill:#fff;opacity:0.6000000000000001"></rect><rect x="175.51" y="110.2" width="132.74" height="183.55" transform="translate(443.85 -39.9) rotate(90)" style="fill:#00A8E8"></rect><rect x="175.51" y="110.2" width="132.74" height="183.55" transform="translate(443.85 -39.9) rotate(90)" style="opacity:0.2"></rect><path d="M164.63,202.69c1.55-1.94,2.84-4.1,4.56-6a3.09,3.09,0,0,0,.7-1.25,7.36,7.36,0,0,1,4,.61c4.84,2.17,9.25,5.84,13.08,9.47.82.77,1.66,1.5,2.5,2.23-3.78-4.22-7.56-8.45-11.39-12.63a6.12,6.12,0,0,1-1.71-4.41,42.14,42.14,0,0,1,5.83-5.51,4,4,0,0,0,1-1,5.71,5.71,0,0,1,3.86,2c8.19,8.9,16.3,17.64,25.35,25.62-.73-1-1.46-2-2.16-3.07-4.75-7.05-9.84-13.82-15.15-20.46-3.74-4.67-10.2-10.43-11.39-16.63q.36-.45.75-.9c.33-.4.67-.78,1-1.15a2.37,2.37,0,0,0,.94-.37c1.59-1,2.6-3.16,1.33-4.9a4.29,4.29,0,0,0-1-1c-1.93-2.42-3.82-4.88-5.62-7.41a3.54,3.54,0,0,1-.26-.41c1.29-3.7,4.37-6.39,7.37-8.93a5.49,5.49,0,0,1,2.82,1.68c3.61,3.92,7.75,7.36,11.09,11.52,3.59,4.45,6.55,9.36,10,13.94l.17.22c4.12,4.58,8.25,9.15,12.25,13.83,3.48,3.53,7,7,10.44,10.42,5.43,5.5,10.94,11,16.66,16.29-1.42-2.1-2.84-4.19-4.3-6.27-6.44-9.17-13.59-17.82-20.48-26.65-3.4-4.35-6.51-8.9-9.8-13.32-2.6-3.48-6.49-6.66-8.53-10.48a7,7,0,0,1-.8-2.47,5,5,0,0,0,.63-.67,18.31,18.31,0,0,1,6.23-4.76,2.86,2.86,0,0,0,1.26-1.19,6.8,6.8,0,0,1,2.61,1.42,100.06,100.06,0,0,1,9.13,9,22.22,22.22,0,0,1-2.21-4.93c-1.62-5.53,4.55-9.6,9.29-7.14l.41.23a7,7,0,0,1,7.92-4.58c1.83-2.44,5-3.72,7.91-1.53,11.86,9.06,23.16,19.1,34.35,29,1,.89,2,1.8,3,2.71-1.93-3-4-5.92-6.26-8.83-2.57-3.25-6.15-6.66-7.52-10.71a2.25,2.25,0,0,0,.39-.3,36,36,0,0,0,7.22-9.25.36.36,0,0,1,0-.09c5,1.12,10.22,4.35,14.44,6.78A106.3,106.3,0,0,1,312,161.48a4.28,4.28,0,0,0,.27,1.54,6.76,6.76,0,0,0,.4.81l0,.89a15.19,15.19,0,0,0-1,2.54,4.64,4.64,0,0,0-1.9,1.66,5.08,5.08,0,0,0-.63,2.64c0,.25.06.5.1.75a2.85,2.85,0,0,0-1,1.44,6.42,6.42,0,0,1-3.09-1.51q-2-1.73-4-3.34c1.73,2.88,3.38,5.82,5.06,8.64,2.94,4.94,6,9.75,9.39,14.42,2.57,3.56,6,6.66,6.43,10.61-2.39,2-4.05,4.57-6.12,6.91-.11.13-.2.27-.29.4a11.91,11.91,0,0,1-6-2.21c.55.65,1.08,1.31,1.59,2,4.53,6.2,10.93,11.21,15,17.67a6.67,6.67,0,0,1,1,2.42l-1.42,1.79a3.45,3.45,0,0,0-.69,3.39l-.1.08.5.6,0,0a7.5,7.5,0,0,1,1.42,2.92,32.77,32.77,0,0,1-7,7.84c-3.72-.28-7-2.7-10.29-4.59q-3.36-1.94-6.68-4a21.37,21.37,0,0,1,2.8,4.59,7.51,7.51,0,0,1,.53,2,4.41,4.41,0,0,0-.53.35,52.59,52.59,0,0,0-7.63,6.77,10.21,10.21,0,0,1-1-.46,58.36,58.36,0,0,1-6.27-3.94,8.89,8.89,0,0,1,.49,2.88,3.48,3.48,0,0,0-2.79.85c-1.8,1.54-3.25,3.52-5,5.09a5,5,0,0,1-1.61-.71c-4.71-3.19-8.7-7.39-13.2-10.87l-3.41-2.6a6.75,6.75,0,0,1,.32,2.78,3.28,3.28,0,0,0-1.23.63c-2.16,1.74-4.27,3.53-6.41,5.3a6.19,6.19,0,0,1-1.53-.82,52.54,52.54,0,0,1-6-5,8.3,8.3,0,0,1-.24,1.1,2.67,2.67,0,0,0-2.6.23,53.1,53.1,0,0,0-5,4c-2.49-.66-4.22-2.48-6.23-4l-1-.79a5.33,5.33,0,0,1-.44.72,2.52,2.52,0,0,0-1.8.43,25.3,25.3,0,0,0-2.44,2.06l-.33.31a6,6,0,0,1-2.57-.07c-4.62-1.23-8.75-4.42-12.71-7.21.78.91,1.56,1.81,2.32,2.74,2.89,3.55,7.13,7.41,8.6,11.9a3.6,3.6,0,0,0-.51.63c-.55.91-1.17,1.82-1.83,2.72a23.37,23.37,0,0,0-5.81,4.8,8.07,8.07,0,0,1-.94-.33c-4.65-2-8.12-5.74-11.6-9.28-2.49-2.53-4.88-5.13-7.21-7.8a5.59,5.59,0,0,1-.52,1,3.43,3.43,0,0,0-3.33.7c-1,.82-2.09,1.58-3.16,2.35a6.57,6.57,0,0,1-4.86-2.63c-5.19-6.74-19.75-25.15-14.9-35.55a31.29,31.29,0,0,1-6-8.06A7.69,7.69,0,0,1,164.63,202.69Z" style="fill:#fff;opacity:0.1"></path><path d="M320.73,202.05c-1.55,1.95-2.84,4.11-4.56,6a3.21,3.21,0,0,0-.71,1.24,7.16,7.16,0,0,1-4-.61c-4.84-2.17-9.25-5.84-13.09-9.46-.81-.77-1.65-1.5-2.5-2.24,3.79,4.22,7.56,8.45,11.39,12.63a6.15,6.15,0,0,1,1.72,4.42,42.72,42.72,0,0,1-5.83,5.51,4.14,4.14,0,0,0-1,1,5.69,5.69,0,0,1-3.86-2C290.12,209.69,282,201,273,193c.72,1,1.46,2,2.16,3.07,4.75,7.05,9.84,13.83,15.14,20.46,3.75,4.68,10.21,10.43,11.4,16.63-.25.31-.49.61-.75.91s-.68.77-1,1.14a2.72,2.72,0,0,0-.94.37c-1.59,1.05-2.6,3.16-1.33,4.9a3.76,3.76,0,0,0,1,1c1.93,2.43,3.81,4.89,5.62,7.41.1.14.18.28.26.41-1.3,3.71-4.37,6.4-7.37,8.94a5.46,5.46,0,0,1-2.82-1.68c-3.62-3.92-7.75-7.37-11.09-11.52-3.59-4.45-6.55-9.36-10-14l-.17-.21c-4.11-4.59-8.24-9.16-12.24-13.84-3.49-3.52-7-7-10.44-10.41-5.43-5.5-10.94-11-16.66-16.3,1.42,2.1,2.84,4.2,4.3,6.27,6.44,9.17,13.59,17.83,20.48,26.65,3.4,4.35,6.51,8.91,9.8,13.33,2.6,3.48,6.49,6.65,8.53,10.48a6.86,6.86,0,0,1,.8,2.47,4.38,4.38,0,0,0-.63.66,18.28,18.28,0,0,1-6.24,4.77,2.89,2.89,0,0,0-1.25,1.19,6.89,6.89,0,0,1-2.61-1.43,98.85,98.85,0,0,1-9.14-8.95,22.46,22.46,0,0,1,2.22,4.93c1.62,5.53-4.55,9.6-9.29,7.15l-.41-.23a7,7,0,0,1-7.92,4.58c-1.83,2.44-5,3.72-7.91,1.52-11.86-9.06-23.16-19.09-34.36-29l-3-2.72a106.92,106.92,0,0,0,6.26,8.83c2.57,3.26,6.15,6.66,7.51,10.71-.13.1-.26.18-.39.3a36.39,36.39,0,0,0-7.21,9.25s0,.06,0,.09c-5-1.12-10.22-4.35-14.45-6.78a106,106,0,0,1-15.35-11.09,4.19,4.19,0,0,0-.27-1.53,7.61,7.61,0,0,0-.4-.81c0-.3,0-.6,0-.9a13.86,13.86,0,0,0,1-2.54,4.56,4.56,0,0,0,1.9-1.66,5.06,5.06,0,0,0,.63-2.64c0-.25-.06-.49-.1-.74a2.9,2.9,0,0,0,1-1.45,6.55,6.55,0,0,1,3.1,1.51c1.32,1.15,2.66,2.26,4,3.35-1.72-2.89-3.38-5.83-5-8.64-2.94-5-6-9.75-9.4-14.42-2.56-3.57-6-6.67-6.42-10.61,2.39-2,4-4.57,6.12-6.92a2.92,2.92,0,0,0,.29-.4,12.1,12.1,0,0,1,6,2.21c-.55-.65-1.09-1.31-1.59-2-4.53-6.21-10.93-11.21-15-17.67a6.82,6.82,0,0,1-1-2.42l1.42-1.8a3.46,3.46,0,0,0,.69-3.38.39.39,0,0,1,.1-.08l-.5-.6,0,0a7.7,7.7,0,0,1-1.43-2.93,32.78,32.78,0,0,1,7-7.83c3.72.27,7,2.69,10.29,4.58,2.24,1.29,4.47,2.61,6.68,4a21.2,21.2,0,0,1-2.8-4.6,7.35,7.35,0,0,1-.53-2,4.8,4.8,0,0,0,.52-.36,52.07,52.07,0,0,0,7.64-6.76,7.1,7.1,0,0,1,1,.46,59.87,59.87,0,0,1,6.27,3.93,8.59,8.59,0,0,1-.49-2.88,3.49,3.49,0,0,0,2.79-.84c1.8-1.54,3.25-3.53,5-5.1a5.25,5.25,0,0,1,1.61.71c4.71,3.19,8.7,7.39,13.2,10.88q1.69,1.31,3.41,2.59a6.54,6.54,0,0,1-.32-2.77,3.46,3.46,0,0,0,1.23-.64c2.16-1.74,4.27-3.53,6.4-5.3a6.78,6.78,0,0,1,1.54.82,53.68,53.68,0,0,1,6,5,6.85,6.85,0,0,1,.24-1.11,2.64,2.64,0,0,0,2.6-.22,51.8,51.8,0,0,0,5-4.06c2.5.67,4.23,2.48,6.24,4l1,.79a4.78,4.78,0,0,1,.44-.72,2.53,2.53,0,0,0,1.8-.43,24,24,0,0,0,2.44-2.07l.33-.3a6,6,0,0,1,2.57.06c4.61,1.24,8.74,4.42,12.7,7.22-.77-.91-1.55-1.82-2.31-2.74-2.89-3.56-7.13-7.41-8.6-11.91a3.68,3.68,0,0,0,.51-.63c.55-.9,1.17-1.82,1.82-2.71a23.46,23.46,0,0,0,5.82-4.8,6.44,6.44,0,0,1,.93.33c4.65,2,8.13,5.74,11.61,9.28q3.72,3.8,7.2,7.8a5.64,5.64,0,0,1,.53-1,3.43,3.43,0,0,0,3.33-.7c1-.82,2.08-1.59,3.16-2.36a6.57,6.57,0,0,1,4.86,2.63c5.19,6.75,19.75,25.16,14.9,35.56a31.18,31.18,0,0,1,6,8.06A7.89,7.89,0,0,1,320.73,202.05Z" style="fill:#fff;opacity:0.1"></path><g style="opacity:0.6000000000000001"><path d="M296.27,233.29a1.49,1.49,0,0,0-1.09.58l-.21-2.34-.67.06.52,5.6.59-.06,0-.47a1.52,1.52,0,0,0,1.17.44A1.78,1.78,0,0,0,298.1,235,1.76,1.76,0,0,0,296.27,233.29Zm.22,3.22c-.54.05-1.12-.29-1.21-1.21a1.15,1.15,0,0,1,1-1.4c.64-.06,1.09.46,1.16,1.2A1.16,1.16,0,0,1,296.49,236.51Z" style="fill:#fff"></path><path d="M166.32,215.29a1.47,1.47,0,0,0-1.13.47v-2.34h-.68V219h.6l.08-.47a1.55,1.55,0,0,0,1.13.54A1.78,1.78,0,0,0,168,217.2,1.76,1.76,0,0,0,166.32,215.29Zm-.08,3.22c-.54,0-1.09-.39-1.09-1.31a1.16,1.16,0,0,1,1.09-1.31c.65,0,1,.56,1,1.31S166.89,218.51,166.24,218.51Z" style="fill:#fff"></path><path d="M279.68,234.37c-.81.08-1.24-.41-1.32-1.21a1.13,1.13,0,0,1,1.08-1.41,2.11,2.11,0,0,1,1,.14l0-.62a2.41,2.41,0,0,0-1.15-.11,1.75,1.75,0,0,0-1.64,2.07,1.76,1.76,0,0,0,2,1.73,1.88,1.88,0,0,0,1.09-.37l-.14-.53A2.14,2.14,0,0,1,279.68,234.37Z" style="fill:#fff"></path><path d="M166.2,226.89a2.22,2.22,0,0,1,1,.22l.1-.6a2.39,2.39,0,0,0-1.13-.22,1.73,1.73,0,0,0-1.82,1.9,1.77,1.77,0,0,0,1.83,1.92,1.79,1.79,0,0,0,1.11-.28l-.09-.54a2.06,2.06,0,0,1-1,.23c-.81,0-1.2-.53-1.2-1.33S165.39,226.89,166.2,226.89Z" style="fill:#fff"></path><path d="M262.29,232l-.07-.75c-.12-1.32-.52-1.72-1.45-1.63a2.16,2.16,0,0,0-1.2.5l.15.53a1.64,1.64,0,0,1,.93-.42c.51,0,.81.08.87.77-.93.1-2.16.48-2.06,1.51a1.06,1.06,0,0,0,1.23,1,1.48,1.48,0,0,0,1.06-.64c.19.32.34.5,1,.44h.06l.05-.55h-.07C262.4,232.75,262.34,232.51,262.29,232Zm-1.53.92a.51.51,0,0,1-.62-.51c-.05-.54.36-.81,1.43-.94l.08.87A1.21,1.21,0,0,1,260.76,232.91Z" style="fill:#fff"></path><path d="M165.37,208.12a1.46,1.46,0,0,0,1.13-.54c.15.34.29.54.94.54h.05l.11-.54h-.07c-.39,0-.42-.25-.42-.78v-.74c0-1.33-.37-1.77-1.3-1.77a2.08,2.08,0,0,0-1.24.39l.1.54a1.6,1.6,0,0,1,1-.33c.51,0,.8.15.8.85-.94,0-2.2.28-2.2,1.31A1.05,1.05,0,0,0,165.37,208.12Zm1.07-1.91v.87a1.2,1.2,0,0,1-.94.5.51.51,0,0,1-.57-.57C164.93,206.47,165.37,206.24,166.44,206.21Z" style="fill:#fff"></path><path d="M202.24,190.5a23.13,23.13,0,0,0,2.75-.79,21.22,21.22,0,0,0,13.47-14.29,19.07,19.07,0,0,0,.34-8.3l1-.22a.5.5,0,1,0-.22-1l-1,.22c-2.14-9.35-10.72-16.24-20.08-16.07a19,19,0,0,0-3.22.33l0-.06a.49.49,0,0,0-.59-.38.5.5,0,0,0-.38.6v.06a20.17,20.17,0,0,0-14.33,14c-2.74,8.88.06,17.86,7.15,22.89A18.79,18.79,0,0,0,202.24,190.5Zm15.38-24.15L206,168.91a15.51,15.51,0,0,0-1.69.51c-1.69.57-3.6,1.22-4.75.4-1.33-.95-1.67-4.34-1.88-7a.49.49,0,0,0,.35.33.41.41,0,0,0,.22,0,.5.5,0,0,0,.38-.37,28.78,28.78,0,0,1,5-10.5.48.48,0,0,0,0-.58,18.7,18.7,0,0,1,3,1.07,32.76,32.76,0,0,0-2.14,7.67l0,.17c-.54,3-1.1,6-3,8.21a.51.51,0,0,0,0,.71.48.48,0,0,0,.44.11.52.52,0,0,0,.27-.15c2.13-2.38,2.71-5.59,3.28-8.7l0-.18a32.35,32.35,0,0,1,2-7.39A20,20,0,0,1,217.62,166.35Zm-18.57-15.26h0a18.63,18.63,0,0,1,3.88.47.47.47,0,0,0-.15.13,29.53,29.53,0,0,0-5.15,10.87v0c0-.06,0-.13,0-.19a24.51,24.51,0,0,0-.34-3L197,158a.53.53,0,0,0,.17-.24,46.15,46.15,0,0,1,2.18-6A.5.5,0,0,0,199.05,151.09Zm-.52,0h.17a.52.52,0,0,0-.31.27,50,50,0,0,0-1.82,4.92l-1.07-4.87A19,19,0,0,1,198.53,151.07ZM180.93,165a19.17,19.17,0,0,1,13.6-13.37l1.75,8a27.81,27.81,0,0,1,.32,2.86c.24,3.08.55,6.91,2.33,8.18a4.3,4.3,0,0,0,3.43.39c.76-.17,1.52-.43,2.22-.66a15.93,15.93,0,0,1,1.58-.49l11.66-2.55a18,18,0,0,1-.33,7.83,20.17,20.17,0,0,1-12.84,13.6,18.16,18.16,0,0,1-16.94-2C181,182,178.32,173.42,180.93,165Z" style="fill:#fff"></path><path d="M253.91,158.15l7.72-2.56a2,2,0,0,1,1.11-.16c.42.13.65.63.92,1.21a2.39,2.39,0,0,0,3.75,1.45,2.28,2.28,0,0,1,1.61-.26,2.26,2.26,0,0,1,.4.28,3,3,0,0,0,.55.39,3.21,3.21,0,0,0,1.85.17,2.42,2.42,0,0,1,1.27.05,2.33,2.33,0,0,1,.71.64,4.58,4.58,0,0,0,.42.46,4.14,4.14,0,0,0,3,1.07,15.5,15.5,0,0,0,3.5-.55l.44-.1a41.36,41.36,0,0,1,8.31-.8l20.17-.58a.5.5,0,0,0,0-1l-20.17.58a43,43,0,0,0-8.51.82l-.44.11c-2,.47-4.26,1-5.59-.27a4.25,4.25,0,0,1-.35-.39,2.57,2.57,0,0,0-2.85-1,2.34,2.34,0,0,1-1.28-.06,3,3,0,0,1-.38-.27,3.26,3.26,0,0,0-.61-.42,3,3,0,0,0-2.4.24,2.2,2.2,0,0,1-1.6.27c-.4-.17-.63-.68-.88-1.21a2.73,2.73,0,0,0-1.53-1.74,2.83,2.83,0,0,0-1.71.16l-7.72,2.56a.52.52,0,0,0-.32.64A.5.5,0,0,0,253.91,158.15Z" style="fill:#fff"></path><path d="M251.34,169.11l12.7-.59a2.69,2.69,0,0,1,1.39.17.73.73,0,0,1,.35.46.3.3,0,0,1,0,.25.5.5,0,0,0,.59.75c3-1.11,6-2.13,9-3.05a10.3,10.3,0,0,0,.8,3.14.51.51,0,0,0,.38.3h.08a.52.52,0,0,0,.38-.17A17.56,17.56,0,0,1,279.6,168a3.07,3.07,0,0,1,.3,1.18.49.49,0,0,0,.26.43.5.5,0,0,0,.49,0,4.92,4.92,0,0,0,1.55-1.46c1,.17,2.06.34,3.09.49a90.59,90.59,0,0,0,24.56.18.5.5,0,0,0,.43-.56.48.48,0,0,0-.56-.43,89.74,89.74,0,0,1-24.28-.18c-1.14-.17-2.27-.35-3.4-.54a.48.48,0,0,0-.51.24,4.06,4.06,0,0,1-.77.93,3.9,3.9,0,0,0-.6-1.29.46.46,0,0,0-.32-.2.56.56,0,0,0-.38.08,18.24,18.24,0,0,0-2.62,2.27,9.45,9.45,0,0,1-.48-2.68.47.47,0,0,0-.21-.39.5.5,0,0,0-.43-.08c-3,.89-6,1.89-9,3v0a1.73,1.73,0,0,0-.83-1.09,3.52,3.52,0,0,0-1.93-.29l-12.7.58a.5.5,0,0,0,.05,1Z" style="fill:#fff"></path><path d="M264.31,182c.95-.16,2.07,0,2.29.68,0,.11,0,.24.07.36a1.54,1.54,0,0,0,.57,1.16,1.14,1.14,0,0,0,.65.19,2.35,2.35,0,0,0,1-.27l4.24-2a1.33,1.33,0,0,1,.59-.18,1.2,1.2,0,0,1,.47.28c.12.09.24.18.37.26a3.87,3.87,0,0,0,2.1.38c3.23-.08,6.45-.28,9.57-.48,4.08-.25,8.3-.52,12.54-.5h0a.51.51,0,0,0,.5-.5.5.5,0,0,0-.5-.5c-4.28,0-8.52.25-12.62.5-3.1.2-6.31.4-9.52.48a2.89,2.89,0,0,1-1.56-.24,1.73,1.73,0,0,1-.28-.19,1.9,1.9,0,0,0-.95-.48,2,2,0,0,0-1.15.27l-4.25,2c-.43.21-.58.18-.63.15s-.11-.28-.15-.49a2.77,2.77,0,0,0-.1-.5c-.43-1.36-2.1-1.59-3.41-1.37a69,69,0,0,1-9.79.64h-.7a.5.5,0,0,0,0,1h.7A70,70,0,0,0,264.31,182Z" style="fill:#fff"></path><path d="M286.52,196a83.41,83.41,0,0,1,20.09-.68.48.48,0,0,0,.54-.45.5.5,0,0,0-.45-.54,83.83,83.83,0,0,0-20.33.68c-.52.08-1.12.05-1.19-.21a.47.47,0,0,1,0-.17,1.48,1.48,0,0,0-.14-.56,1,1,0,0,0-.62-.49,2.19,2.19,0,0,0-1.69.52,7.4,7.4,0,0,1-3.6.87l-8.68.6a1.77,1.77,0,0,1-1.3-.39s0,0,0-.11a.52.52,0,0,0,0-.47.54.54,0,0,0-.41-.24l-8.64-.27c-2.12-.07-4.7.11-5.81,2.07a.49.49,0,0,0,.19.68.44.44,0,0,0,.24.07.49.49,0,0,0,.44-.26c.85-1.49,3.07-1.62,4.91-1.56l8.11.26a.9.9,0,0,0,.17.39,2.63,2.63,0,0,0,2.19.83l8.68-.6a8.24,8.24,0,0,0,4.09-1c.54-.37.83-.41.86-.39a.39.39,0,0,1,0,.18,1.43,1.43,0,0,0,.06.35C284.44,195.85,285.28,196.18,286.52,196Z" style="fill:#fff"></path><path d="M173.08,208.25a14.69,14.69,0,0,1,5.94.34l.19,0a3.58,3.58,0,0,0,3.41-.4,4.14,4.14,0,0,1,1.18-.51,4.24,4.24,0,0,1,2.25.43c.39.14.8.29,1.22.4,2.6.64,5.11-.58,7.48-2l.6,1.59a.5.5,0,0,0,.52.32.5.5,0,0,0,.44-.42,1.48,1.48,0,0,1,2.49-.51.5.5,0,0,0,.64.18,5.43,5.43,0,0,1,3.46.1,51.86,51.86,0,0,0,11.63,1.32,51,51,0,0,0,5.38-.28.5.5,0,0,0,.44-.55.49.49,0,0,0-.55-.44,50.62,50.62,0,0,1-16.72-1,6.75,6.75,0,0,0-3.7-.16,2.4,2.4,0,0,0-2.17-.56,2.58,2.58,0,0,0-1.31.68l-.43-1.15a.49.49,0,0,0-.31-.29.51.51,0,0,0-.42,0c-2.34,1.45-4.82,2.82-7.23,2.22a11.1,11.1,0,0,1-1.11-.37,5,5,0,0,0-2.79-.47,4.81,4.81,0,0,0-1.47.61,3.71,3.71,0,0,1-1.33.53,3.83,3.83,0,0,1-1.33-.21l-.2-.06a15.63,15.63,0,0,0-6.35-.36.51.51,0,0,0-.42.57A.5.5,0,0,0,173.08,208.25Z" style="fill:#fff"></path><path d="M220.26,218.77l-20.82.22a77.81,77.81,0,0,0-9.12.46c-.89.12-1.78.27-2.68.42a31.59,31.59,0,0,1-6.36.61,1.12,1.12,0,0,1-.69-.17,1.19,1.19,0,0,1-.17-.39,2.06,2.06,0,0,0-.36-.75,2,2,0,0,0-1.59-.52h-4.29a.5.5,0,0,0-.5.5.51.51,0,0,0,.5.5h4.29c.36,0,.69,0,.83.18a1.19,1.19,0,0,1,.17.39,1.87,1.87,0,0,0,.38.76,1.91,1.91,0,0,0,1.38.5l.73,0a35.51,35.51,0,0,0,5.85-.65c.88-.14,1.76-.29,2.64-.41a77.67,77.67,0,0,1,9-.45l20.81-.22a.49.49,0,0,0,.49-.5.5.5,0,0,0-.5-.5Z" style="fill:#fff"></path><path d="M223.7,230.19a.5.5,0,0,0-.56-.44,103.13,103.13,0,0,1-20.41.53h-.11a9.62,9.62,0,0,0-2.78.07,6.05,6.05,0,0,0-.73.2,4.07,4.07,0,0,1-1.33.24,4.27,4.27,0,0,1-1.25-.39,3.93,3.93,0,0,0-1.92-.47,4.47,4.47,0,0,0-1.93.83c-.63.4-1.17.75-1.7.6a2.29,2.29,0,0,1-.64-.38l-.35-.23c-1.16-.74-3.75-1.12-5.1-.22a51.59,51.59,0,0,1-10.23-.78.5.5,0,0,0-.58.4.51.51,0,0,0,.41.58,51.36,51.36,0,0,0,10.58.79.54.54,0,0,0,.3-.1c.84-.67,3.08-.46,4.09.17l.29.21a3.26,3.26,0,0,0,1,.52,2,2,0,0,0,.54.07,3.79,3.79,0,0,0,2-.79,3.62,3.62,0,0,1,1.47-.67,3.37,3.37,0,0,1,1.44.38,4.74,4.74,0,0,0,1.59.48,4.62,4.62,0,0,0,1.67-.29l.66-.18a8.67,8.67,0,0,1,2.5,0h.1a105.28,105.28,0,0,0,20.62-.53A.51.51,0,0,0,223.7,230.19Z" style="fill:#fff"></path><path d="M230.32,245.7h0l-3.92,0a1.75,1.75,0,0,1-.75-.1,1.48,1.48,0,0,1-.37-.32c-.12-.12-.25-.23-.38-.34a3.51,3.51,0,0,0-2.46-.44,3.62,3.62,0,0,1-1.6-.11l-.15-.06a1.93,1.93,0,0,0-.69-.2,1.82,1.82,0,0,0-.88.27l-.51.31a3.81,3.81,0,0,1-1.45.65,1.14,1.14,0,0,1-.89-.32.45.45,0,0,1-.13-.39.52.52,0,0,0-.13-.44.49.49,0,0,0-.43-.15,14.5,14.5,0,0,0-3.6,1,.5.5,0,0,0-.26.65.51.51,0,0,0,.66.27,13.2,13.2,0,0,1,2.81-.85,1.76,1.76,0,0,0,.35.58,2.11,2.11,0,0,0,1.75.63,4.72,4.72,0,0,0,1.85-.79l.47-.29a.82.82,0,0,1,.36-.14,1.69,1.69,0,0,1,.31.11l.18.08a4.62,4.62,0,0,0,2,.18,2.69,2.69,0,0,1,1.79.24,3.2,3.2,0,0,1,.27.25,2.66,2.66,0,0,0,.62.5,2.36,2.36,0,0,0,1.1.21h.12l3.91,0a.5.5,0,0,0,0-1Z" style="fill:#fff"></path><path d="M225.62,250.86a12,12,0,0,0-4.74.88,10.34,10.34,0,0,1-4.62.8,2.44,2.44,0,0,1-1.81-1,.5.5,0,0,0-.69-.17.49.49,0,0,0-.17.68,3.44,3.44,0,0,0,2.53,1.49,6.77,6.77,0,0,0,.89.06,13.65,13.65,0,0,0,4.18-.9,11.39,11.39,0,0,1,4.35-.84.5.5,0,1,0,.08-1Z" style="fill:#fff"></path><path d="M171.39,245a.45.45,0,0,0,.16,0l4.27-1.48c.41-.14.53-.08.54-.08a.64.64,0,0,1,0,.2,1.26,1.26,0,0,0,.36.73,1.28,1.28,0,0,0,1.26.13l3.64-1.14a1,1,0,0,1,.36-.06c.08,0,.19.16.29.28l.12.15a2.81,2.81,0,0,0,3.13.74.5.5,0,0,0-.38-.92,1.81,1.81,0,0,1-2-.48l-.1-.12a1.61,1.61,0,0,0-.8-.62,1.63,1.63,0,0,0-.93.08l-3.64,1.14c-.21.07-.29.06-.29.08a1.67,1.67,0,0,1-.05-.19,1.39,1.39,0,0,0-.24-.61c-.23-.3-.7-.59-1.66-.26L171.23,244a.5.5,0,0,0-.31.64A.49.49,0,0,0,171.39,245Z" style="fill:#fff"></path><path d="M170.25,252a6.28,6.28,0,0,0,5.42,0l.18-.09a1.76,1.76,0,0,1,.86-.28,1.72,1.72,0,0,1,.75.49c.12.11.24.22.37.32a2.86,2.86,0,0,0,2.84.43,4.37,4.37,0,0,0,.79-.48,5.8,5.8,0,0,1,.52-.34,1.28,1.28,0,0,1,.53-.12,5.53,5.53,0,0,1-.83,1.21.49.49,0,0,0,0,.7.5.5,0,0,0,.34.13.49.49,0,0,0,.37-.16,6.2,6.2,0,0,0,1.2-1.92.49.49,0,0,0-.09-.52,1.66,1.66,0,0,0-2-.21,5.47,5.47,0,0,0-.65.41,3.77,3.77,0,0,1-.61.38,1.89,1.89,0,0,1-1.83-.29l-.31-.28a2.44,2.44,0,0,0-1.29-.74,2.56,2.56,0,0,0-1.44.37l-.17.09a5.22,5.22,0,0,1-4.53,0,.5.5,0,0,0-.67.23A.49.49,0,0,0,170.25,252Z" style="fill:#fff"></path><path d="M188.15,259.25c-2.77-1.09-5.79-.87-8.71-.65l-1.72.12c-2.5.14-5.05.07-7.52,0a.55.55,0,0,0-.51.49.5.5,0,0,0,.49.51c2.49.06,5.06.13,7.6,0l1.74-.12c2.8-.21,5.71-.43,8.27.58l.18,0a.51.51,0,0,0,.47-.32A.5.5,0,0,0,188.15,259.25Z" style="fill:#fff"></path><path d="M204.4,168.09a.5.5,0,0,0,.35.61.65.65,0,0,0,.24,0,.52.52,0,0,0,.37-.36,30,30,0,0,1,5-10.2.5.5,0,1,0-.79-.61A30.88,30.88,0,0,0,204.4,168.09Z" style="fill:#fff"></path><path d="M209.21,166.73a.49.49,0,0,0,.29,0,.52.52,0,0,0,.36-.3,47.37,47.37,0,0,1,3.25-6.44.47.47,0,0,0,.39-.2.54.54,0,0,0,.06-.57.66.66,0,0,0-.49-.31.77.77,0,0,0-.68.34,48.29,48.29,0,0,0-3.46,6.8A.5.5,0,0,0,209.21,166.73Z" style="fill:#fff"></path><path d="M213.82,166.06a.53.53,0,0,0,.3,0,.52.52,0,0,0,.36-.3l1.45-3.56a.5.5,0,1,0-.92-.37l-1.46,3.55A.5.5,0,0,0,213.82,166.06Z" style="fill:#fff"></path><path d="M314.58,223.58a20.71,20.71,0,0,0-16.09-10.91A26.72,26.72,0,0,0,279.75,218a24.37,24.37,0,0,0-9.78-7.47c-6.06-2.39-12.43-1.45-18.42,2.73a20.67,20.67,0,0,0-9.12,17.17c-.08,8.22,4.33,16.58,11.51,21.79a17.24,17.24,0,0,0,10.25,3.21,22.9,22.9,0,0,0,12.41-3.87c.54-.35,1.06-.72,1.56-1.1a18,18,0,0,0,12.71,5.72,13.24,13.24,0,0,0,1.54-.08c10-1,19-6.48,22.91-13.93C318.35,236.43,318.1,230,314.58,223.58Zm-38.52,27.16c-7.21,4.69-15.67,5-21.53.7-6.93-5-11.18-13.07-11.1-21a19.73,19.73,0,0,1,8.69-16.36c5.7-4,11.75-4.88,17.48-2.62a23.59,23.59,0,0,1,9.33,7.17,28.2,28.2,0,0,0-3.34,3.13c-5.15,5.69-5.85,14.56-1.78,22.61a24.63,24.63,0,0,0,3.67,5.36C277,250.09,276.55,250.43,276.06,250.74Zm3.49-31.31A32,32,0,0,1,285.3,232c1.28,6-1.46,12.51-7,17.09a23.65,23.65,0,0,1-3.55-5.19c-3.89-7.68-3.25-16.11,1.62-21.49A27,27,0,0,1,279.55,219.43Zm34.88,22.3c-3.7,7.05-12.59,12.43-22.12,13.4-4.8.49-9.6-1.5-13.36-5.27,5.83-4.82,8.68-11.64,7.33-18a33,33,0,0,0-5.91-13,26.16,26.16,0,0,1,15.41-5.28,22.53,22.53,0,0,1,2.6.15,19.74,19.74,0,0,1,15.33,10.39C317.05,230.16,317.3,236.27,314.43,241.73Z" style="fill:#fff"></path><path d="M274,228.23l-.7-.72A53.55,53.55,0,0,1,280,222l.58.82A51.64,51.64,0,0,0,274,228.23Z" style="fill:#fff"></path><path d="M273.22,233.57l-.68-.73,5-4.74a16.82,16.82,0,0,1,4.11-3.15l.44.9a16.35,16.35,0,0,0-3.87,3Z" style="fill:#fff"></path><rect x="273.89" y="237.3" width="10.72" height="1" transform="translate(-86.66 212.58) rotate(-36.47)" style="fill:#fff"></rect><path d="M276.92,245.3l-.77-.64a24.16,24.16,0,0,1,5.84-5.11l.53.84A23.44,23.44,0,0,0,276.92,245.3Z" style="fill:#fff"></path></g></g><g id="freepik--character-2--inject-4"><path d="M394,164.22s2.49,1.28,2.48,3.13c0,0,5.57-2.5,7.61.94s-.75,4.26-.75,4.26,5.23,2.26,5.95,5.06-3.21,4.65-3.21,4.65.46,8.7-5.8,10.08-12.11,2.77-15.59-.61-5.38-7.5-3.53-10.35a2.16,2.16,0,0,1-2-1.34c-.69-1.43,2.43-3.37,2.43-3.37s-.64-.18.46-4.3S394,164.22,394,164.22Z" style="fill:#263238"></path><path d="M371.7,161.39c-2.28-1.13-1.78-5.15-1.78-5.15s-2.51,1-2.76-2,3.36-5.35,3.36-5.35-1.85.32,0-3.31,9.54-7.11,16.22-3.69a7.32,7.32,0,0,1,5.93-.45c3.58,1.15,3.14,3.75,3.14,3.75s3.94,1.26,4.83,7.18S400,165,398.1,164.59c0,0-.53,4.41-7.47,8s-13.71-6.37-12.74-12.29C377.89,160.27,374.23,162.66,371.7,161.39Z" style="fill:#263238"></path><path d="M370.77,200.75a103.28,103.28,0,0,1-11.57,7.31c-4.78,2.44-9.3,4.83-15.05,5.33-8.06.44-18.22-10.88-23.11-16.57a2.65,2.65,0,0,1,3.54-3.86c5.8,3.77,11.78,8.66,18.21,10.87.32.1.65.07.42,0,.15,0,.38-.06.6-.12,7.32-2.28,14.4-7.48,20.88-11.66,5.8-3.7,11.53,4.44,6.08,8.66Z" style="fill:#b65b52"></path><path d="M373.6,187.61c-8.51-1.53-11.82,3.33-21.81,11.81a18,18,0,0,0,8,13.31S380.62,199.18,373.6,187.61Z" style="fill:#00A8E8"></path><path d="M373.2,199.18c-3.6,6.63-11.34,12.16-13,13.32l-.34.23a18,18,0,0,1-8-13.32c10-8.47,13.31-13.34,21.81-11.8C375.93,191.44,375.2,195.48,373.2,199.18Z" style="fill:#fff;isolation:isolate;opacity:0.6000000000000001"></path><path d="M315.91,187.56l2.61-.18a3,3,0,0,1,2.55,1.11L324,192a5.65,5.65,0,0,1,1.08,5.08l-.3,1.1c-4.3.59-9.38-1.95-9.38-1.95l-1.53-.56a2.53,2.53,0,0,1-1.58-3.23l1.07-3A2.93,2.93,0,0,1,315.91,187.56Z" style="fill:#b55b52"></path><path d="M373.2,199.18c-3.6,6.63-11.34,12.16-13,13.32.6-3,2.5-9.42,8.12-13.51A3.65,3.65,0,0,1,373.2,199.18Z" style="opacity:0.2"></path><path d="M403.61,188.4a163.08,163.08,0,0,0-3.32,17.17c-.46,3.22-.91,6.81-1.27,10.69a201,201,0,0,0-.86,23.74H364.32s-5.34-39.58,3.48-52.34C367.8,187.66,385.15,179.49,403.61,188.4Z" style="fill:#00A8E8"></path><path d="M403.61,188.4a163.08,163.08,0,0,0-3.32,17.17c-.46,3.22-.91,6.81-1.27,10.69a201,201,0,0,0-.86,23.74H364.32s-5.34-39.58,3.48-52.34C367.8,187.66,385.15,179.49,403.61,188.4Z" style="fill:#fff;isolation:isolate;opacity:0.6000000000000001"></path><path d="M400.29,205.57c-.46,3.22-.91,6.81-1.27,10.69a26.35,26.35,0,0,1-1-18.25Z" style="opacity:0.2"></path><path d="M383.84,218.39l2.61,0a3,3,0,0,1,2.46,1.29l2.64,3.76a5.66,5.66,0,0,1,.71,5.15l-.38,1.07c-4.34.26-9.22-2.64-9.22-2.64l-1.48-.68a2.52,2.52,0,0,1-1.34-3.33l1.3-3A2.9,2.9,0,0,1,383.84,218.39Z" style="fill:#b55b52"></path><path d="M386.1,181.92c10.62,0,11.95,8.73,11.95,8.73l-5-2.14-14.58,9.75-3.59-9.84-4.49.83S376.88,181.92,386.1,181.92Z" style="fill:#00A8E8"></path><path d="M386.1,181.92c10.62,0,11.95,8.73,11.95,8.73l-5-2.14-14.58,9.75-3.59-9.84-4.49.83S376.88,181.92,386.1,181.92Z" style="fill:#fff;isolation:isolate;opacity:0.4"></path><path d="M379,197.68l13.69-11.91c-3.33-3.41-1.63-12.78-.25-17.89l-10.37,8.33c.69,4,.53,8.2-5.28,9.57C376.77,185.78,379,197.64,379,197.68Z" style="fill:#b55b52"></path><path d="M388.19,171.28l-6.14,4.92a16.15,16.15,0,0,1,.28,2.83c2.2-.32,5.37-2.71,5.78-5A7.5,7.5,0,0,0,388.19,171.28Z" style="opacity:0.2"></path><path d="M394.11,155.49c.15,8.4.39,11.94-3.42,16.77-5.74,7.27-15.91,6.15-18.53-1.9-2.35-7.25-2.2-19.77,5.58-24.17A10.77,10.77,0,0,1,394.11,155.49Z" style="fill:#b55b52"></path><path d="M386,151.08c5.65,4.84-2.15,13.35,6.94,11.07s2.69-14.45-3.36-16.26S386,151.08,386,151.08Z" style="fill:#263238"></path><path d="M381.58,159.48c0,.7-.29,1.32-.73,1.38s-.84-.47-.88-1.17.28-1.32.72-1.38S381.53,158.77,381.58,159.48Z" style="fill:#263238"></path><path d="M373.22,160.7c0,.7-.29,1.32-.73,1.38s-.84-.47-.89-1.17.29-1.32.73-1.38S373.17,160,373.22,160.7Z" style="fill:#263238"></path><path d="M372.53,159.54l-1.66-.27S371.79,160.48,372.53,159.54Z" style="fill:#263238"></path><path d="M375.62,161.55a20.78,20.78,0,0,1-2.15,4.81,2.81,2.81,0,0,0,2.45.16Z" style="fill:#a02724"></path><path d="M380,168.61a6.36,6.36,0,0,1-1.14.25.19.19,0,0,1-.21-.18.22.22,0,0,1,.19-.24,5.87,5.87,0,0,0,4.26-2.75.2.2,0,0,1,.27-.1.21.21,0,0,1,.08.28A6.21,6.21,0,0,1,380,168.61Z" style="fill:#263238"></path><path d="M396.5,163.12a5.75,5.75,0,0,1-2.81,3.72c-1.78.89-3-1.1-2.86-3.38.16-2.06,1.28-5,3.22-4.91S397.06,161,396.5,163.12Z" style="fill:#b55b52"></path><path d="M383.12,155.33a.37.37,0,0,1-.3-.07,3,3,0,0,0-2.83-.46.38.38,0,0,1-.51-.23.44.44,0,0,1,.25-.54,3.76,3.76,0,0,1,3.58.54.43.43,0,0,1,.07.58A.51.51,0,0,1,383.12,155.33Z" style="fill:#263238"></path><path d="M370.55,157.15a.39.39,0,0,1-.3,0,.4.4,0,0,1-.13-.56,4.28,4.28,0,0,1,3.11-2.23.37.37,0,0,1,.41.37.44.44,0,0,1-.39.45,3.46,3.46,0,0,0-2.44,1.8A.46.46,0,0,1,370.55,157.15Z" style="fill:#263238"></path><path d="M380.89,158.32l-1.66-.27S380.15,159.26,380.89,158.32Z" style="fill:#263238"></path><path d="M380.6,147.56s1.9,6.77,3.72,3.31c0,0,.13,5.1,1.58,5.61s1.58-1.15,1.58-1.15.73,4.08,3.33,4.19c1.37.06,3.13-3.76,3.25-5,.23-2.35-1.73-6.19-2.86-7.93-1.59-2.44-5.6-3.21-11.35-2.7s-10.16,5.72-9.2,8.36,5.76-3.87,5.76-3.87-.62,1.38.36,1.65S380.6,147.56,380.6,147.56Z" style="fill:#263238"></path><path d="M409.76,197.42a129.94,129.94,0,0,1,6.5,26.4c-1.22,12.43-20.86,7.42-28.55,5a2.65,2.65,0,0,1,.91-5.15c4,.12,8.2.24,12.16,0,2.32-.2,5.07-.31,6.71-1.36-.26-.09-.82,1-.79,1.34l.09,1c-2-7.74-4.61-16.15-7-23.8-1.87-6.57,7.43-9.77,10-3.46Z" style="fill:#b65b52"></path><path d="M401.49,187.63c5.69.88,8.83,5.32,13.48,16.77-5.38,9.27-13.4,10.53-13.4,10.53S393.66,200.88,401.49,187.63Z" style="fill:#00A8E8"></path><path d="M401.49,187.63c5.69.88,8.83,5.32,13.48,16.77-5.38,9.27-13.4,10.53-13.4,10.53S393.66,200.88,401.49,187.63Z" style="fill:#fff;isolation:isolate;opacity:0.6000000000000001"></path><path d="M378.79,201.21a.67.67,0,1,1-.67-.67A.67.67,0,0,1,378.79,201.21Z" style="opacity:0.2"></path><path d="M377.46,211a.67.67,0,1,1-.67-.67A.67.67,0,0,1,377.46,211Z" style="opacity:0.2"></path><path d="M376.68,221.21a.67.67,0,0,1-.67.67.66.66,0,0,1-.66-.67.65.65,0,0,1,.66-.66A.66.66,0,0,1,376.68,221.21Z" style="opacity:0.2"></path><path d="M376.68,232.06a.67.67,0,0,1-.67.67.67.67,0,1,1,.67-.67Z" style="opacity:0.2"></path><path d="M321.8,189.4l-14,6.38-2.14.14,1.51-1.52,14-6.37a.56.56,0,0,1,.74.27l.16.36A.56.56,0,0,1,321.8,189.4Z" style="fill:#fff"></path><polygon points="363.42 241.91 363.98 237.19 398.58 237.19 399.85 241.31 363.42 241.91" style="fill:#263238"></polygon><path d="M331.83,413.93c6.56,0,7.43-.11,11.12-.23,3.16-.11,3.91.28,6.45.23,2.12-.05,2.05-2.08,1.39-4.42-.33-1.17-.83-3.65-1.28-5.54l-9.62-.7c-1.35,2.58-4.41,6.27-8.11,6.76C328.25,410.51,329.21,413.93,331.83,413.93Z" style="fill:#00A8E8"></path><path d="M379.4,413.93c6.56,0,7.43-.11,11.12-.23,3.16-.11,3.91.28,6.45.23,2.12-.05,2-2.08,1.39-4.42-.33-1.17-.83-3.65-1.28-5.54l-9.62-.7c-1.36,2.58-4.41,6.27-8.11,6.76C375.82,410.51,376.78,413.93,379.4,413.93Z" style="fill:#00A8E8"></path><path d="M331.83,413.93c6.56,0,7.43-.11,11.12-.23,3.16-.11,3.91.28,6.45.23,2.12-.05,2.05-2.08,1.39-4.42-.33-1.17-.83-3.65-1.28-5.54l-9.62-.7c-1.35,2.58-4.41,6.27-8.11,6.76C328.25,410.51,329.21,413.93,331.83,413.93Z" style="fill:#fff;opacity:0.4"></path><path d="M379.4,413.93c6.56,0,7.43-.11,11.12-.23,3.16-.11,3.91.28,6.45.23,2.12-.05,2-2.08,1.39-4.42-.33-1.17-.83-3.65-1.28-5.54l-9.62-.7c-1.36,2.58-4.41,6.27-8.11,6.76C375.82,410.51,376.78,413.93,379.4,413.93Z" style="fill:#fff;opacity:0.4"></path><path d="M388.46,238.57H364c-1.48,9.07-8.37,52.35-9.62,75.91C352.86,342.22,344,386.65,339.27,404c1.32,1.19,7.54,1.69,10.48.22,0,0,25.66-51.24,22.33-83.27C391.49,266.3,389.09,242.59,388.46,238.57Z" style="fill:#263238"></path><path d="M378.43,301.73c3.05-10.06,5.25-18.78,6.81-26.25-1.55-5.85-3.74-10.85-6.71-13.86C378.53,261.62,374.24,277.9,378.43,301.73Z" style="opacity:0.2"></path><path d="M398.49,238.57H373c1.75,13.43,7.14,54.42,10.47,76.08,4.22,27.46,4.76,71.51,3.7,89.47,1.54.89,7.15,2,10.18,1,0,0,14.32-55.53,4.81-87.78C410.15,258.7,400.08,240.94,398.49,238.57Z" style="fill:#263238"></path><polygon points="387.94 241.06 399.39 241.06 398.69 237.8 387.94 237.8 387.94 241.06" style="fill:#263238"></polygon><polygon points="367.14 237.8 363.71 237.8 363.42 241.06 367.14 241.06 367.14 237.8" style="fill:#263238"></polygon><rect x="368.28" y="237.8" width="18.54" height="3.26" style="fill:#263238"></rect><polygon points="387.94 241.06 399.39 241.06 398.69 237.8 387.94 237.8 387.94 241.06" style="fill:#fff;isolation:isolate;opacity:0.6000000000000001"></polygon><polygon points="367.14 237.8 363.71 237.8 363.42 241.06 367.14 241.06 367.14 237.8" style="fill:#fff;isolation:isolate;opacity:0.6000000000000001"></polygon><rect x="368.28" y="237.8" width="18.54" height="3.26" style="fill:#fff;isolation:isolate;opacity:0.6000000000000001"></rect><rect x="372.88" y="237.55" width="6.26" height="3.76" rx="0.56" style="fill:#fff"></rect></g><g id="freepik--character-1--inject-4"><rect x="113.18" y="295.25" width="4.76" height="68.78" transform="translate(-43.66 18.73) rotate(-7.8)" style="fill:#263238"></rect><rect x="83.7" y="295.25" width="4.76" height="68.78" transform="translate(-43.93 14.73) rotate(-7.8)" style="fill:#263238"></rect><g style="isolation:isolate;opacity:0.30000000000000004"><rect x="113.18" y="295.25" width="4.76" height="68.78" transform="translate(-43.66 18.73) rotate(-7.8)" style="fill:#fff"></rect></g><g style="isolation:isolate;opacity:0.6000000000000001"><rect x="83.7" y="295.25" width="4.76" height="68.78" transform="translate(-43.93 14.73) rotate(-7.8)" style="fill:#fff"></rect></g><polygon points="116.8 413.57 123.43 413.57 124.24 378.53 124.59 363.72 115.65 363.72 115.99 378.53 116.8 413.57" style="fill:#263238"></polygon><polygon points="116.8 413.57 123.43 413.57 124.24 378.53 124.59 363.72 115.65 363.72 115.99 378.53 116.8 413.57" style="fill:#fff;isolation:isolate;opacity:0.6000000000000001"></polygon><polygon points="124.59 363.72 124.24 378.94 115.99 378.94 115.65 363.72 124.59 363.72" style="isolation:isolate;opacity:0.2"></polygon><polygon points="150.65 413.57 147.77 364.76 140 364.76 144.04 413.57 150.65 413.57" style="fill:#263238"></polygon><polygon points="144.03 413.57 150.65 413.57 148.2 371.99 147.78 364.67 140.01 364.67 140.6 371.99 144.03 413.57" style="fill:#fff;isolation:isolate;opacity:0.7000000000000001"></polygon><polygon points="140.01 364.67 140.6 372.28 148.2 372.28 147.78 364.67 140.01 364.67" style="isolation:isolate;opacity:0.2"></polygon><polygon points="96.19 413.57 100.22 364.76 92.46 364.76 89.57 413.57 96.19 413.57" style="fill:#263238"></polygon><polygon points="96.2 413.57 99.62 371.99 100.22 364.67 92.45 364.67 92.02 371.99 89.58 413.57 96.2 413.57" style="fill:#fff;isolation:isolate;opacity:0.7000000000000001"></polygon><polygon points="100.22 364.67 99.62 372.28 92.02 372.28 92.45 364.67 100.22 364.67" style="isolation:isolate;opacity:0.2"></polygon><path d="M93.65,356.43h52.93a5.36,5.36,0,0,1,5.36,5.36v5.76a0,0,0,0,1,0,0H88.29a0,0,0,0,1,0,0v-5.76A5.36,5.36,0,0,1,93.65,356.43Z" style="fill:#263238"></path><path d="M116.68,318.35H81.53a4.54,4.54,0,0,1-4.51-4l-2.47-19.3A2.77,2.77,0,0,1,77.3,292h35.16a4.54,4.54,0,0,1,4.51,4l2.47,19.3A2.79,2.79,0,0,1,116.68,318.35Z" style="fill:#263238"></path><path d="M116.68,318.35H81.53a4.54,4.54,0,0,1-4.51-4l-2.47-19.3A2.77,2.77,0,0,1,77.3,292h35.16a4.54,4.54,0,0,1,4.51,4l2.47,19.3A2.79,2.79,0,0,1,116.68,318.35Z" style="fill:#fff;isolation:isolate;opacity:0.8"></path><path d="M93.65,356.43h52.93a5.36,5.36,0,0,1,5.36,5.36v5.76a0,0,0,0,1,0,0H88.29a0,0,0,0,1,0,0v-5.76A5.36,5.36,0,0,1,93.65,356.43Z" style="fill:#fff;opacity:0.2"></path><rect x="85.24" y="361.99" width="69.74" height="5.56" rx="2.16" style="fill:#263238"></rect><rect x="85.24" y="361.99" width="69.74" height="5.56" rx="2.16" style="fill:#fff;isolation:isolate;opacity:0.8"></rect><g id="freepik--group--inject-4"><path d="M138.18,293.47,144.5,300c2.09,2.16,4.23,4.35,6.32,6.2.27.25.51.44.76.65l.37.32.33.23a5.83,5.83,0,0,0,.61.43c.19.13.52.28.77.43,1.18.61,2.57,1.18,3.94,1.76,2.78,1.15,5.66,2.31,8.48,3.55l0,0a2.2,2.2,0,0,1-1,4.2,67.83,67.83,0,0,1-9.49-1.2,42.83,42.83,0,0,1-4.85-1.25c-.45-.16-.85-.29-1.35-.52l-.74-.34-.66-.39-.65-.39-.56-.38c-.37-.25-.75-.51-1.08-.76a86.12,86.12,0,0,1-7.37-6.37c-2.29-2.2-4.46-4.44-6.6-6.81a4.37,4.37,0,0,1,6.38-6Z" style="fill:#e9b376"></path><path d="M138.18,293.47,144.5,300c2.09,2.16,4.23,4.35,6.32,6.2.27.25.51.44.76.65l.37.32.33.23a5.83,5.83,0,0,0,.61.43c.19.13.52.28.77.43,1.18.61,2.57,1.18,3.94,1.76,2.78,1.15,5.66,2.31,8.48,3.55l0,0a2.2,2.2,0,0,1-1,4.2,67.83,67.83,0,0,1-9.49-1.2,42.83,42.83,0,0,1-4.85-1.25c-.45-.16-.85-.29-1.35-.52l-.74-.34-.66-.39-.65-.39-.56-.38c-.37-.25-.75-.51-1.08-.76a86.12,86.12,0,0,1-7.37-6.37c-2.29-2.2-4.46-4.44-6.6-6.81a4.37,4.37,0,0,1,6.38-6Z" style="isolation:isolate;opacity:0.1"></path><path d="M169.17,312.85l-1.84-1.11a2.49,2.49,0,0,0-2.28-.16l-3.47,1.49a4.68,4.68,0,0,0-2.72,3.31l-.19.91c2.92,2.06,7.59,2.13,7.59,2.13l1.33.17a2.08,2.08,0,0,0,2.38-1.76l.37-2.63A2.42,2.42,0,0,0,169.17,312.85Z" style="fill:#ebb376"></path><path d="M169.17,312.85l-1.84-1.11a2.49,2.49,0,0,0-2.28-.16l-3.47,1.49a4.68,4.68,0,0,0-2.72,3.31l-.19.91c2.92,2.06,7.59,2.13,7.59,2.13l1.33.17a2.08,2.08,0,0,0,2.38-1.76l.37-2.63A2.42,2.42,0,0,0,169.17,312.85Z" style="isolation:isolate;opacity:0.1"></path><polygon points="161.54 396.29 160.53 402.6 159.61 408.42 151.18 408.42 151.91 400.97 152.6 393.84 161.54 396.29" style="fill:#ebb376"></polygon><path d="M159.13,405.11l-8.56-.53a.54.54,0,0,0-.59.48h0l-.84,6.75a1.34,1.34,0,0,0,1.24,1.43c3,.14,4.43.06,8.2.26a70.33,70.33,0,0,0,10,.32c3.19-.31,2.8-3.45,1.43-3.6-3.27-.37-7.6-2.78-9.64-4.6A2.17,2.17,0,0,0,159.13,405.11Z" style="fill:#263238"></path><path d="M161.76,406.58a9.15,9.15,0,0,1-2-.4.17.17,0,0,1-.13-.14.23.23,0,0,1,.08-.18c.26-.16,2.51-1.49,3.42-1.08a.66.66,0,0,1,.38.54.91.91,0,0,1-.28,1A2,2,0,0,1,161.76,406.58Zm1.2-1.44c-.48-.23-1.79.33-2.71.84,1.34.36,2.35.38,2.73,0a.7.7,0,0,0,.17-.63.32.32,0,0,0-.19-.26Z" style="fill:#00A8E8"></path><path d="M159.78,406.18a.08.08,0,0,1-.08,0,.22.22,0,0,1-.09-.14c0-.07,0-2.3.78-3a.94.94,0,0,1,.77-.2.69.69,0,0,1,.62.58c.12.84-1.12,2.36-1.91,2.76A.08.08,0,0,1,159.78,406.18Zm1.23-3a.56.56,0,0,0-.39.13,3.93,3.93,0,0,0-.64,2.39,3.76,3.76,0,0,0,1.44-2.23c0-.11-.07-.24-.32-.28Z" style="fill:#00A8E8"></path><polygon points="161.54 396.29 160.53 402.6 151.91 400.97 152.6 393.84 161.54 396.29" style="isolation:isolate;opacity:0.2"></polygon><path d="M162.71,400.93l-.31.83-13.13-3.17s7.22-30.13,4.51-34c-2.29-3.29-13.16-4-28.48-4.74l-9-.45c-20-1,21.78-21.3,21.78-21.3s26.73,1.12,33.7,10.32C178.19,356.84,164.9,394.84,162.71,400.93Z" style="fill:#00A8E8"></path><path d="M158.4,397.92l4.31,3-.31.83-13.13-3.17s7.22-30.13,4.51-34c-2.29-3.29-13.16-4-28.48-4.74l-1.79-5.25,11.43-13.3s24.5,3,29.38,12.73S158.4,397.92,158.4,397.92Z" style="isolation:isolate;opacity:0.2"></path><path d="M149.25,303.45,141.59,312l-.18-.09-.23-.11s0,0,0,0h-.05c-.3-.15-.74-.38-1.27-.68l-.52-.28-.13-.08-.55-.32-.73-.44a29.68,29.68,0,0,1-4.09-2.93c-.21-.2-.42-.39-.61-.59a8.34,8.34,0,0,1-1.06-1.24,1.13,1.13,0,0,1-.12-.21.64.64,0,0,1-.08-.14,2.22,2.22,0,0,1-.14-.31l-.09-.23-.06-.19-.12-.4c0-.15-.06-.3-.1-.46s-.05-.31-.08-.47,0-.09,0-.13h0c0-.12,0-.24-.05-.36s0-.35-.05-.53,0-.36,0-.54,0-.38,0-.57c-.13-5.27,1.6-12.51,4.14-11.68,5.07,1.68,11.37,10.64,13.31,13.56C149,303.11,149.25,303.45,149.25,303.45Z" style="fill:#00A8E8"></path><path d="M149.25,303.45,141.59,312l-.18-.09-.23-.11,0,0h0c-.3-.15-.74-.38-1.27-.68l-.52-.28-.13-.08-.55-.32-.73-.44a29.68,29.68,0,0,1-4.09-2.93c-.21-.2-.42-.39-.61-.59a8.34,8.34,0,0,1-1.06-1.24,1.13,1.13,0,0,1-.12-.21.64.64,0,0,1-.08-.14,2.22,2.22,0,0,1-.14-.31l-.09-.23-.06-.19-.12-.4c0-.15-.06-.3-.1-.46s-.05-.31-.08-.47,0-.09,0-.13h0c0-.12,0-.24-.05-.36s0-.35-.05-.53,0-.36,0-.54,0-.38,0-.57c-.13-5.27,1.6-12.51,4.14-11.68,5.07,1.68,11.37,10.64,13.31,13.56C149,303.11,149.25,303.45,149.25,303.45Z" style="fill:#fff;opacity:0.6000000000000001"></path><polygon points="150.11 303.81 142.56 313.32 141.1 312.65 140.59 312.42 141.13 311.76 141.19 311.69 148.65 302.53 148.85 302.28 150.11 303.81" style="fill:#00A8E8"></polygon><path d="M141.19,311.69a.28.28,0,0,1,0,.09s0,0,0,0a8.6,8.6,0,0,1-.08.86l-.51-.23.54-.66c-.3-.15-.74-.38-1.27-.68l-.52-.28-.13-.08-.55-.32-.73-.44a29.68,29.68,0,0,1-4.09-2.93c-.21-.2-.42-.39-.61-.59a8.34,8.34,0,0,1-1.06-1.24,1.13,1.13,0,0,1-.12-.21.64.64,0,0,1-.08-.14,2.22,2.22,0,0,1-.14-.31l-.09-.23-.06-.19-.12-.4c0-.15-.06-.3-.1-.46s-.05-.31-.08-.47,0-.09,0-.13h0l4.53-8.57S141.83,302.05,141.19,311.69Z" style="isolation:isolate;opacity:0.2"></path><path d="M96.88,334.41s-8.84,25,16.23,25,27.09-9.77,25-21.29Z" style="fill:#00A8E8"></path><polygon points="137.77 396.29 136.76 402.6 135.84 408.42 127.4 408.42 128.13 400.97 128.83 393.84 137.77 396.29" style="fill:#ebb376"></polygon><path d="M135.36,405.11l-8.56-.53a.54.54,0,0,0-.6.48h0l-.84,6.75a1.34,1.34,0,0,0,1.25,1.43c3,.14,4.42.06,8.19.26a70.48,70.48,0,0,0,10.06.32c3.19-.31,2.8-3.45,1.42-3.6-3.27-.37-7.59-2.78-9.64-4.6A2.17,2.17,0,0,0,135.36,405.11Z" style="fill:#263238"></path><path d="M138,406.58a9.39,9.39,0,0,1-2-.4.15.15,0,0,1-.12-.14.18.18,0,0,1,.08-.18c.25-.16,2.5-1.49,3.42-1.08a.68.68,0,0,1,.38.54,1,1,0,0,1-.28,1A2,2,0,0,1,138,406.58Zm1.21-1.44c-.49-.23-1.8.33-2.72.84,1.35.36,2.35.38,2.73,0a.65.65,0,0,0,.17-.63.33.33,0,0,0-.18-.26Z" style="fill:#00A8E8"></path><path d="M136,406.18a.06.06,0,0,1-.07,0,.18.18,0,0,1-.09-.14c0-.07,0-2.3.77-3a1,1,0,0,1,.78-.2.69.69,0,0,1,.61.58c.12.84-1.12,2.36-1.9,2.76A.09.09,0,0,1,136,406.18Zm1.24-3a.54.54,0,0,0-.39.13,4,4,0,0,0-.65,2.39,3.76,3.76,0,0,0,1.44-2.23c0-.11-.06-.24-.31-.28Z" style="fill:#00A8E8"></path><polygon points="137.77 396.29 136.76 402.6 128.13 400.97 128.83 393.84 137.77 396.29" style="isolation:isolate;opacity:0.2"></polygon><path d="M148,348.39c-3.91-5.15-14-7.77-22.15-9.08L114.1,359.42c12.32.51,16.11,4.11,16.39,5.25,1.33,5.46-5,33.92-5,33.92l13.13,3.17S155,357.59,148,348.39Z" style="fill:#00A8E8"></path><path d="M94.46,339.31s4.59-33.69,7.79-40.6,8.36-16.37,30.72-10.9c0,0,8.48,2.39,7,12.84s-1.92,37.57-1.92,37.57Z" style="fill:#00A8E8"></path><path d="M140,300.65c-.43,3.08-.77,7.59-1,12.43-.06,1.12-.12,2.27-.18,3.42-.13,2.66-.24,5.34-.33,7.86,0,.44,0,.88-.05,1.31-.23,7-.33,12.55-.33,12.55l-43.62,1.1s4.59-33.71,7.79-40.61,8.36-16.37,30.72-10.89C133,287.82,141.45,290.2,140,300.65Z" style="fill:#fff;opacity:0.6000000000000001"></path><path d="M129.58,294.08l2.59-4.2,3.56,4.2s-1-11.14-13.95-11.39a6.45,6.45,0,0,0-6.56,4.38c2.27,3.67,8.28,7.65,8.28,7.65l2.39-3.62Z" style="fill:#00A8E8"></path><rect x="155.54" y="299.92" width="2.14" height="17.48" transform="translate(-100.68 77.15) rotate(-21.12)" style="fill:#263238"></rect><path d="M119.5,273.26a38.68,38.68,0,0,1,.32,7.64,13.69,13.69,0,0,1-1.14,5s3.45,3.34,6.57,4.06l3.45,2.56-.23-3.5s0-.18,0-.49c-.08-1.35,0-5.59,3.86-7.18C137.57,279.11,119.5,273.26,119.5,273.26Z" style="fill:#ebb376"></path><path d="M119.5,273.26a38.68,38.68,0,0,1,.32,7.64c2.19,3.26,5,6.38,8.61,7.6-.08-1.35,0-5.59,3.86-7.18C137.57,279.11,119.5,273.26,119.5,273.26Z" style="isolation:isolate;opacity:0.2"></path><path d="M133.48,253.14s5.42,3.07,4.5,9.29-11.07-4.36-11.07-4.36Z" style="fill:#263238"></path><path d="M112.66,269.43c3.81,7.43,5.61,12,11.63,14,9.06,3.09,18.17-4.95,17-13.47-1.07-7.67-7.14-18.5-16.86-17.93S108.86,262,112.66,269.43Z" style="fill:#ebb376"></path><path d="M127.5,268.47c.27.78.91,1.29,1.42,1.1s.71-1,.45-1.75-.91-1.28-1.43-1.11S127.23,267.68,127.5,268.47Z" style="fill:#263238"></path><path d="M135.09,264.38c.27.79.91,1.29,1.42,1.11s.71-1,.45-1.75-.91-1.28-1.43-1.11S134.82,263.59,135.09,264.38Z" style="fill:#263238"></path><path d="M127.28,262.2a.52.52,0,0,0,0-.3.49.49,0,0,0-.62-.31,4.82,4.82,0,0,0-3.2,3.12.49.49,0,0,0,.35.6h0a.51.51,0,0,0,.6-.35h0a3.79,3.79,0,0,1,2.6-2.43A.51.51,0,0,0,127.28,262.2Z" style="fill:#263238"></path><path d="M136.9,258.45a.47.47,0,0,0,.2-.22.5.5,0,0,0-.32-.62,4.78,4.78,0,0,0-4.42.64.49.49,0,0,0-.07.69h0a.5.5,0,0,0,.68.07h0a3.85,3.85,0,0,1,3.54-.44A.47.47,0,0,0,136.9,258.45Z" style="fill:#263238"></path><path d="M134,267.18l2.91,1s-.28,1.14-2.38,2.13Z" style="fill:#d58745"></path><path d="M110.07,264.19a5.92,5.92,0,0,1,1.11-8.67c5-4.06,17-6.86,19.75-10.38,0,0,3.68,3.8,3.88,6.49l1.62-1.95s-.77,6-5.78,7.57-10.2,1-8.49,7.83-1.87,9.18-1.87,9.18l-.27,6.8a12.27,12.27,0,0,1-9.33-7.44C107.6,266.75,110.07,264.19,110.07,264.19Z" style="fill:#263238"></path><path d="M121.21,272s-3.3-3.81-5.14-1.7,1,9.34,4.35,8.27S123.5,273.88,121.21,272Z" style="fill:#ebb376"></path><path d="M131.34,273.88a8.52,8.52,0,0,1-4.62-1.19.26.26,0,0,1-.08-.37.27.27,0,0,1,.37-.08c3.38,2.18,8.58.44,8.63.43a.26.26,0,0,1,.34.16.26.26,0,0,1-.16.34A15.2,15.2,0,0,1,131.34,273.88Z" style="fill:#263238"></path><path d="M160.35,311.26l-2-.83a2.48,2.48,0,0,0-2.28.17l-3.22,2a4.66,4.66,0,0,0-2.21,3.67l-.06.93c3.19,1.61,7.82,1,7.82,1l1.34,0a2.08,2.08,0,0,0,2.1-2.09l0-2.66A2.4,2.4,0,0,0,160.35,311.26Z" style="fill:#ebb376"></path><path d="M139,313.08c-.06,1.12-.12,2.27-.18,3.42-.13,2.66-.24,5.34-.33,7.86,0,.44,0,.88-.05,1.31-28.44-1.3-32.89-22.31-32.89-22.31s7.38-7.7,11.52-6.87,13.53,12.17,13.53,12.17l-.39,1.57C131.26,311.41,136.53,312.59,139,313.08Z" style="isolation:isolate;opacity:0.2"></path><path d="M115.72,299.87c4.87,5.07,10.34,10.12,16.53,13.52l-.79-.27a23.07,23.07,0,0,0,4.71.45c3.69.05,7.48-.13,11.21-.3l5.7-.27a2.18,2.18,0,0,1,.77,4.26c-1.89.59-3.77,1.07-5.67,1.55a74.22,74.22,0,0,1-14.85,2.25,12,12,0,0,1-4.41-.53,58.56,58.56,0,0,1-19.75-14.89,4.37,4.37,0,0,1,6.55-5.77Z" style="fill:#e9b376"></path><path d="M107.69,291.52c6.37-5.87,19.3,16,19.3,16l-7.82,9.64S93.89,304.26,107.69,291.52Z" style="fill:#00A8E8"></path><path d="M107.69,291.52c6.37-5.87,19.3,16,19.3,16l-7.82,9.64S93.89,304.26,107.69,291.52Z" style="fill:#fff;opacity:0.6000000000000001"></path><polygon points="117.53 317.64 126.99 306.13 128.75 308.69 120.56 319.54 117.53 317.64" style="fill:#00A8E8"></polygon></g><path d="M140.17,318s11.57-2.68,18.5-2.48,7.77,1.23,7.77,1.23,4-1.86,7.07-1.24,8.23,1.72,8.23,1.72v2.34l-41.15.46Z" style="fill:#00A8E8"></path><path d="M140.17,318s11.57-2.68,18.5-2.48,7.77,1.23,7.77,1.23,4-1.86,7.07-1.24,8.23,1.72,8.23,1.72v2.34l-41.15.46Z" style="fill:#fff;opacity:0.7000000000000001"></path><path d="M144.39,320l-3.24,12.67a4.34,4.34,0,0,1-4.22,3.27H86.08l-.84-4.7h47.62a1.11,1.11,0,0,0,1.09-.85L136.47,320Z" style="fill:#263238"></path><path d="M144.39,320l-3.24,12.67a4.34,4.34,0,0,1-4.22,3.27H86.08l-.84-4.7h47.62a1.11,1.11,0,0,0,1.09-.85L136.47,320Z" style="fill:#fff;isolation:isolate;opacity:0.6000000000000001"></path><rect x="120.29" y="317.97" width="68.92" height="4.06" rx="1.54" style="fill:#263238"></rect><path d="M189.21,319.33v1.34a1.36,1.36,0,0,1-1.37,1.36H121.65a1.36,1.36,0,0,1-1.36-1.36v-1.34a1.36,1.36,0,0,1,1.36-1.36h66.19A1.36,1.36,0,0,1,189.21,319.33Z" style="fill:#fff;isolation:isolate;opacity:0.7000000000000001"></path><path d="M189.21,319.33v1.34a1.36,1.36,0,0,1-1.37,1.36h-32a1.36,1.36,0,0,1-1.36-1.36v-1.34a1.36,1.36,0,0,1,1.36-1.36h32A1.36,1.36,0,0,1,189.21,319.33Z" style="fill:#fff;isolation:isolate;opacity:0.5"></path></g></svg>